<svg xmlns="http://www.w3.org/2000/svg" version="1.1" xmlns:xlink="http://www.w3.org/1999/xlink" xmlns:svgjs="http://svgjs.dev/svgjs" viewBox="0 0 800 800"><g transform="matrix(1,0,0,1,-6,0)"><path d="M679.6202224910301 625.6491305167503C681.4145514425222 622.0233350864473 686.5854634699434 622.0233350864473 688.3797924214357 625.6491305167503L743.9868871090607 738.016537845574C745.5940624689349 741.2641168792388 743.2309429674599 745.0702247777064 739.6075907955333 745.0702247777064H628.3924241169325C624.7690719450057 745.0702247777064 622.4059524435307 741.2641168792388 624.0131278034049 738.016537845574L679.6202224910301 625.6491305167503Z " stroke-width="4.5" stroke="#a600ff" fill="none" opacity="0.15" transform="matrix(-0.13917310096006535,0.9902680687415704,-0.9902680687415704,-0.13917310096006535,881.0825655648887,130.0866108333463)"></path><path d="M583.7228592820621 514.5863465935478C586.0213798397588 509.9417326125813 592.6452754120751 509.9417326125813 594.9437959697718 514.5863465935478L666.1760247018535 658.528066725512C668.2348030554114 662.6881886281406 665.2076665039351 667.5637813906403 660.5661823167563 667.5637813906403H518.1004729350776C513.4589887478987 667.5637813906403 510.43185219642254 662.6881886281406 512.4906305499803 658.528066725512L583.7228592820621 514.5863465935478Z " stroke-width="7.333333333333334" stroke="#bd3eff" fill="none" opacity="0.43333333333333335" transform="matrix(0.31846559610300024,0.9867615321125792,-0.9610750725285082,0.16217792310556745,656.5494199280615,-3.5721378825246575)"></path><path d="M487.8255265906722 403.5235550409506C490.62823875457326 397.8601225093205 498.70511787178486 397.8601225093205 501.50783003568597 403.5235550409506L588.3651928122243 579.0395879760554C590.8755741594658 584.1122527476475 587.1844205579882 590.0573303741795 581.5248043555573 590.0573303741795H407.8085522708008C402.14893606836984 590.0573303741795 398.45778246689235 584.1122527476475 400.9681638141338 579.0395879760554L487.8255265906722 403.5235550409506Z " stroke-width="10.166666666666668" stroke="#d157ff" fill="none" opacity="0.7166666666666667" transform="matrix(0.7391580262381552,0.8936326403234123,-0.7478089470231007,0.44879918020046206,396.24357267650083,-96.21696661399733)"></path><path d="M391.9281633817043 292.46078637653716C395.2350671518098 285.7785352942434 404.76492981391664 285.7785352942434 408.0718335840221 292.46078637653716L510.55433040501714 499.5511321147825C513.5163147459423 505.5363397553383 509.16114409446345 512.5509022459025 502.4833958767804 512.5509022459025H297.51660108894595C290.8388528712629 512.5509022459025 286.48368221978416 505.5363397553383 289.44566656070924 499.5511321147825L391.9281633817043 292.46078637653716Z " stroke-width="13" stroke="#e46bff" fill="none" opacity="1" transform="matrix(1.0611803055657814,0.7193398003386511,-0.365393681885463,0.6946583704589974,151.32819487147202,-139.43343329567284)"></path></g></svg>