<svg xmlns="http://www.w3.org/2000/svg" version="1.1" xmlns:xlink="http://www.w3.org/1999/xlink" xmlns:svgjs="http://svgjs.dev/svgjs" viewBox="0 0 800 800"><defs><linearGradient x1="50%" y1="0%" x2="50%" y2="100%" id="rrreflection-grad"><stop stop-color="hsla(293, 77%, 50%, 1.00)" stop-opacity="1" offset="45%"></stop><stop stop-color="hsl(305, 77%, 80%)" stop-opacity="1" offset="100%"></stop></linearGradient><linearGradient x1="50%" y1="0%" x2="50%" y2="100%" id="rrreflection-grad-2"><stop stop-color="hsl(305, 77%, 80%)" stop-opacity="1" offset="0%"></stop><stop stop-color="hsla(293, 77%, 50%, 1.00)" stop-opacity="1" offset="45%"></stop></linearGradient><linearGradient gradientTransform="rotate(270)" x1="50%" y1="0%" x2="50%" y2="100%" id="rrreflection-grad-3"><stop stop-color="hsla(293, 77%, 50%, 1.00)" stop-opacity="1" offset="45%"></stop><stop stop-color="hsl(305, 77%, 80%)" stop-opacity="1" offset="100%"></stop></linearGradient><linearGradient gradientTransform="rotate(270)" x1="50%" y1="0%" x2="50%" y2="100%" id="rrreflection-grad-4"><stop stop-color="hsl(305, 77%, 80%)" stop-opacity="1" offset="0%"></stop><stop stop-color="hsla(293, 77%, 50%, 1.00)" stop-opacity="1" offset="45%"></stop></linearGradient></defs><g stroke-width="0.5" stroke="url(#rrreflection-grad)" fill="none"><circle r="400" cx="50%" cy="0"></circle><circle r="320" cx="50%" cy="0"></circle><circle r="240" cx="50%" cy="0"></circle><circle r="160" cx="50%" cy="0"></circle><circle r="80" cx="50%" cy="0"></circle></g><g stroke-width="0.5" stroke="url(#rrreflection-grad-2)" fill="none"><circle r="400" cx="50%" cy="100%"></circle><circle r="320" cx="50%" cy="100%"></circle><circle r="240" cx="50%" cy="100%"></circle><circle r="160" cx="50%" cy="100%"></circle><circle r="80" cx="50%" cy="100%"></circle></g><g stroke-width="0.5" stroke="url(#rrreflection-grad-3)" fill="none"><circle r="400" cx="0" cy="50%"></circle><circle r="320" cx="0" cy="50%"></circle><circle r="240" cx="0" cy="50%"></circle><circle r="160" cx="0" cy="50%"></circle><circle r="80" cx="0" cy="50%"></circle></g><g stroke-width="0.5" stroke="url(#rrreflection-grad-4)" fill="none"><circle r="400" cx="100%" cy="50%"></circle><circle r="320" cx="100%" cy="50%"></circle><circle r="240" cx="100%" cy="50%"></circle><circle r="160" cx="100%" cy="50%"></circle><circle r="80" cx="100%" cy="50%"></circle></g></svg>