<svg xmlns="http://www.w3.org/2000/svg" version="1.1" xmlns:xlink="http://www.w3.org/1999/xlink" xmlns:svgjs="http://svgjs.dev/svgjs" viewBox="0 0 1422 800"><circle r="70" cx="614" cy="699" fill="hsl(319, 77%, 84%)"></circle><circle r="24.5" cx="384" cy="130" fill="hsl(273, 77%, 84%)"></circle><circle r="15.5" cx="42" cy="637" fill="hsl(85, 77%, 84%)"></circle><circle r="20" cx="83" cy="342" fill="hsl(115, 77%, 84%)"></circle><circle r="21.5" cx="1208" cy="231" fill="hsl(90, 77%, 84%)"></circle><circle r="47.5" cx="807" cy="721" fill="hsl(280, 77%, 84%)"></circle><circle r="23" cx="947" cy="757" fill="hsl(205, 77%, 84%)"></circle><circle r="21" cx="1357" cy="559" fill="hsl(71, 77%, 84%)"></circle><circle r="32.5" cx="1079" cy="718" fill="hsl(136, 77%, 84%)"></circle><circle r="32" cx="1167" cy="584" fill="hsl(102, 77%, 84%)"></circle><circle r="52" cx="583" cy="311" fill="hsl(315, 77%, 84%)"></circle><circle r="39" cx="932" cy="622" fill="hsl(218, 77%, 84%)"></circle><circle r="29" cx="1106" cy="68" fill="hsl(124, 77%, 84%)"></circle><circle r="21" cx="369" cy="218" fill="hsl(255, 77%, 84%)"></circle><circle r="25" cx="1350" cy="278" fill="hsl(71, 77%, 84%)"></circle><circle r="31" cx="179" cy="512" fill="hsl(186, 77%, 84%)"></circle><circle r="17.5" cx="181" cy="382" fill="hsl(186, 77%, 84%)"></circle><circle r="34" cx="417" cy="475" fill="hsl(267, 77%, 84%)"></circle><circle r="35.5" cx="877" cy="77" fill="hsl(251, 77%, 84%)"></circle><circle r="47.5" cx="631" cy="170" fill="hsl(324, 77%, 84%)"></circle><circle r="38" cx="530" cy="535" fill="hsl(299, 77%, 84%)"></circle></svg>