<svg xmlns="http://www.w3.org/2000/svg" version="1.1" xmlns:xlink="http://www.w3.org/1999/xlink" xmlns:svgjs="http://svgjs.dev/svgjs" viewBox="0 0 800 800"><defs><linearGradient x1="50%" y1="0%" x2="50%" y2="100%" id="nnneon-grad"><stop stop-color="hsl(289, 77%, 50%)" stop-opacity="1" offset="0%"></stop><stop stop-color="hsl(305, 77%, 80%)" stop-opacity="1" offset="100%"></stop></linearGradient><filter id="nnneon-filter" x="-100%" y="-100%" width="400%" height="400%" filterUnits="objectBoundingBox" primitiveUnits="userSpaceOnUse" color-interpolation-filters="sRGB">
	<feGaussianBlur stdDeviation="14 8" x="0%" y="0%" width="100%" height="100%" in="SourceGraphic" edgeMode="none" result="blur"></feGaussianBlur></filter><filter id="nnneon-filter2" x="-100%" y="-100%" width="400%" height="400%" filterUnits="objectBoundingBox" primitiveUnits="userSpaceOnUse" color-interpolation-filters="sRGB">
	<feGaussianBlur stdDeviation="33 17" x="0%" y="0%" width="100%" height="100%" in="SourceGraphic" edgeMode="none" result="blur"></feGaussianBlur></filter></defs><g stroke-width="16" stroke="url(#nnneon-grad)" fill="none" transform="rotate(40, 400, 400)"><path d="M389.86494714761534 264.97317982984924C394.01711331635767 256.5829094126194 405.9828601566711 256.5829094126194 410.1350263254135 264.97317982984924L538.8126008091741 524.9969323263008C542.5316842865689 532.511991247178 537.0633085806761 541.3195136568551 528.6786919844822 541.3195136568551H271.32128148854656C262.9366648923526 541.3195136568551 257.46828918645997 532.511991247178 261.1873726638547 524.9969323263008L389.86494714761534 264.97317982984924Z " filter="url(#nnneon-filter)"></path><path d="M413.86494714761534 264.97317982984924C418.01711331635767 256.5829094126194 429.9828601566711 256.5829094126194 434.1350263254135 264.97317982984924L562.8126008091741 524.9969323263008C566.5316842865689 532.511991247178 561.0633085806761 541.3195136568551 552.6786919844822 541.3195136568551H295.32128148854656C286.9366648923526 541.3195136568551 281.46828918645997 532.511991247178 285.1873726638547 524.9969323263008L413.86494714761534 264.97317982984924Z " filter="url(#nnneon-filter2)" opacity="0.25"></path><path d="M365.86494714761534 264.97317982984924C370.01711331635767 256.5829094126194 381.9828601566711 256.5829094126194 386.1350263254135 264.97317982984924L514.8126008091741 524.9969323263008C518.5316842865689 532.511991247178 513.0633085806761 541.3195136568551 504.67869198448216 541.3195136568551H247.32128148854656C238.9366648923526 541.3195136568551 233.46828918645997 532.511991247178 237.18737266385472 524.9969323263008L365.86494714761534 264.97317982984924Z " filter="url(#nnneon-filter2)" opacity="0.25"></path><path d="M389.86494714761534 264.97317982984924C394.01711331635767 256.5829094126194 405.9828601566711 256.5829094126194 410.1350263254135 264.97317982984924L538.8126008091741 524.9969323263008C542.5316842865689 532.511991247178 537.0633085806761 541.3195136568551 528.6786919844822 541.3195136568551H271.32128148854656C262.9366648923526 541.3195136568551 257.46828918645997 532.511991247178 261.1873726638547 524.9969323263008L389.86494714761534 264.97317982984924Z "></path></g></svg>