<svg xmlns="http://www.w3.org/2000/svg" version="1.1" xmlns:xlink="http://www.w3.org/1999/xlink" xmlns:svgjs="http://svgjs.dev/svgjs" viewBox="0 0 800 800"><defs><linearGradient x1="50%" y1="0%" x2="50%" y2="100%" id="ffflurry-grad" gradientTransform="rotate(270)"><stop stop-color="hsl(0, 0%, 100%)" stop-opacity="1" offset="0%"></stop><stop stop-color="hsl(305, 77%, 50%)" stop-opacity="1" offset="45%"></stop><stop stop-color="hsl(305, 77%, 80%)" stop-opacity="1" offset="100%"></stop></linearGradient></defs><rect width="100%" height="100%" fill="hsl(0, 0%, 100%)"></rect><g fill="url(#ffflurry-grad)"><rect width="313" height="2" x="532.5" y="657" rx="1" transform="rotate(134, 689, 658)" opacity="0.38"></rect><rect width="309" height="2" x="-46.5" y="405" rx="1" transform="rotate(134, 108, 406)" opacity="0.70"></rect><rect width="211" height="2" x="497.5" y="375" rx="1" transform="rotate(134, 603, 376)" opacity="0.69"></rect><rect width="181" height="2" x="349.5" y="104" rx="1" transform="rotate(134, 440, 105)" opacity="0.09"></rect><rect width="291" height="2" x="590.5" y="90" rx="1" transform="rotate(134, 736, 91)" opacity="0.46"></rect><rect width="345" height="2" x="440.5" y="138" rx="1" transform="rotate(134, 613, 139)" opacity="0.72"></rect><rect width="372" height="2" x="-31" y="121" rx="1" transform="rotate(134, 155, 122)" opacity="0.80"></rect><rect width="122" height="2" x="687" y="334" rx="1" transform="rotate(134, 748, 335)" opacity="0.69"></rect><rect width="146" height="2" x="392" y="614" rx="1" transform="rotate(134, 465, 615)" opacity="0.12"></rect><rect width="192" height="2" x="92" y="667" rx="1" transform="rotate(134, 188, 668)" opacity="0.67"></rect><rect width="525" height="2" x="91.5" y="333" rx="1" transform="rotate(134, 354, 334)" opacity="0.78"></rect></g></svg>