<svg xmlns="http://www.w3.org/2000/svg" version="1.1" xmlns:xlink="http://www.w3.org/1999/xlink" xmlns:svgjs="http://svgjs.dev/svgjs" viewBox="0 0 800 800" opacity="1"><defs><symbol id="bbburst-shape-1" viewBox="0 0 194 167"><path d="m97 0 96.129 166.5H.871L97 0Z"></path></symbol><symbol id="bbburst-shape-4" viewBox="0 0 149 143"><path d="M71.647 2.781c.898-2.764 4.808-2.764 5.706 0l15.445 47.534a3 3 0 0 0 2.853 2.073h49.98c2.906 0 4.115 3.719 1.764 5.427L106.96 87.193a2.999 2.999 0 0 0-1.09 3.354l15.445 47.534c.898 2.764-2.266 5.062-4.617 3.354l-40.435-29.378a3 3 0 0 0-3.526 0l-40.435 29.378c-2.351 1.708-5.515-.59-4.617-3.354L43.13 90.547a3 3 0 0 0-1.09-3.354L1.605 57.815c-2.35-1.708-1.142-5.427 1.764-5.427h49.98a3 3 0 0 0 2.853-2.073L71.647 2.781Z"></path></symbol><symbol id="bbburst-shape-6" viewBox="0 0 133 116"><path d="M59.7487 10.2513c-13.6683-13.66839-35.8291-13.66839-49.4974 0-13.66839 13.6683-13.66839 35.8291 0 49.4974l49.4974-49.4974ZM66.5 66.5 41.7513 91.2487 66.5 115.997l24.7487-24.7483L66.5 66.5Zm56.249-6.7513c13.668-13.6683 13.668-35.8291 0-49.4974-13.669-13.66839-35.8294-13.66839-49.4977 0l49.4977 49.4974Zm-112.4977 0 31.5 31.5 49.4974-49.4974-31.5-31.5-49.4974 49.4974Zm80.9974 31.5 31.5003-31.5-49.4977-49.4974-31.5 31.5 49.4974 49.4974Z"></path></symbol><symbol id="bbburst-shape-8" viewBox="0 0 87 168"><path d="m12 12 31.2546 18.0749c16.4102 9.4902 20.014 31.6325 7.4603 45.8369L36.3296 92.1884c-12.5684 14.2206-8.9394 36.3916 7.5068 45.8636L75 156" stroke-width="14" stroke-linecap="round" stroke-linejoin="round"></path></symbol><symbol id="bbburst-shape-10" viewBox="0 0 145 145"><circle cx="72.5" cy="72.5" r="61.5" fill="none" stroke-width="22"></circle></symbol></defs><use xlink:href="#bbburst-shape-6" width="32.15369685795199" opacity="0.21040698435180683" transform="matrix(0.9608975949986253,-0.2769039760022559,0.2769039760022559,0.9608975949986253,242.563042096333,374.0350410740597)" fill="hsla(290, 40%, 60%, 1.00)"></use><use xlink:href="#bbburst-shape-10" width="39.79444358900379" opacity="0.3415868381797095" transform="matrix(0.9988311708961758,-0.04833520503912631,0.04833520503912631,0.9988311708961758,547.7918110427622,231.2474770167592)" fill="none" stroke="#ffbd9b"></use><use xlink:href="#bbburst-shape-1" width="45.232536444673514" opacity="0.21656749619867344" transform="matrix(0.9893719002292515,0.1454071629485977,-0.1454071629485977,0.9893719002292515,391.9961800169747,-348.7950665073131)" fill="#e1c6e7"></use><use xlink:href="#bbburst-shape-1" width="39.56095961299884" opacity="0.42478003000423736" transform="matrix(0.7289254003280782,-0.6845931351953151,0.6845931351953151,0.7289254003280782,366.89296283834494,78.19378222529667)" fill="#e1c6e7"></use><use xlink:href="#bbburst-shape-4" width="37.60665134523029" opacity="0.530398587846572" transform="matrix(0.8048249273840734,0.5935122882141708,-0.5935122882141708,0.8048249273840734,412.6790805565174,39.80931921743638)" fill="#e1c6e7"></use><use xlink:href="#bbburst-shape-10" width="40.52063866974857" opacity="0.29785245723630627" transform="matrix(0.80526910457693,-0.592909494960124,0.592909494960124,0.80526910457693,-124.36657955040482,252.55349028515735)" fill="none" stroke="#e1c6e7"></use><use xlink:href="#bbburst-shape-6" width="39.89462197101044" opacity="0.5152202787430532" transform="matrix(0.9983868622791168,-0.05677740068425111,0.05677740068425111,0.9983868622791168,457.10086706914433,195.79975809982164)" fill="#e1c6e7"></use><use xlink:href="#bbburst-shape-6" width="27.241444170973505" opacity="0.8904061960764713" transform="matrix(0.7944974324716373,0.6072675109010658,-0.6072675109010658,0.7944974324716373,634.9147437119082,24.69388694142441)" fill="hsla(290, 40%, 60%, 1.00)"></use><use xlink:href="#bbburst-shape-10" width="37.96512505856479" opacity="0.5178595229082109" transform="matrix(0.9999787982804081,-0.006511757801923257,0.006511757801923257,0.9999787982804081,591.1673016882212,42.660993967474894)" fill="none" stroke="#ffa6d5"></use><use xlink:href="#bbburst-shape-4" width="40.57132438621343" opacity="0.19119830627887824" transform="matrix(0.7122312969044292,-0.7019448551772673,0.7019448551772673,0.7122312969044292,462.0163418273587,59.632393853363)" fill="hsla(290, 40%, 60%, 1.00)"></use><use xlink:href="#bbburst-shape-6" width="50.35094294257071" opacity="0.16174265742536253" transform="matrix(0.9753562995271204,0.220635647556695,-0.220635647556695,0.9753562995271204,735.6885908248945,-257.0650464397617)" fill="#ff5c58"></use><use xlink:href="#bbburst-shape-6" width="33.036343939823375" opacity="0.5756398307413229" transform="matrix(0.8353232842491929,-0.5497590479393151,0.5497590479393151,0.8353232842491929,279.5654161371888,-78.79175035160853)" fill="#ffbd9b"></use><use xlink:href="#bbburst-shape-4" width="35.11253196723893" opacity="0.16255918366283761" transform="matrix(0.9655056852057121,-0.2603819729463778,0.2603819729463778,0.9655056852057121,637.2887735501135,134.9143089952047)" fill="#ffa6d5"></use><use xlink:href="#bbburst-shape-10" width="35.2758160268622" opacity="0.3597595856971788" transform="matrix(0.7879982509355673,0.6156774776800648,-0.6156774776800648,0.7879982509355673,468.1547409179275,310.66681382363834)" fill="none" stroke="#ff5c58"></use><use xlink:href="#bbburst-shape-6" width="33.57602627216933" opacity="0.7236415690214085" transform="matrix(0.9986531525670826,-0.051883339019641615,0.051883339019641615,0.9986531525670826,239.43045848388456,-16.596078806337346)" fill="hsla(290, 40%, 60%, 1.00)"></use><use xlink:href="#bbburst-shape-10" width="48.82551076256381" opacity="0.1930114259252499" transform="matrix(0.9714836493502512,-0.23710655630985447,0.23710655630985447,0.9714836493502512,-74.20613559035134,-56.21793323436907)" fill="none" stroke="hsla(290, 40%, 60%, 1.00)"></use><use xlink:href="#bbburst-shape-8" width="23.259886023568914" opacity="0.7269885194716312" transform="matrix(0.9946080895669885,0.10370510193768313,-0.10370510193768313,0.9946080895669885,341.35658625381467,-84.20115558786313)" fill="none" stroke="hsla(290, 40%, 60%, 1.00)"></use><use xlink:href="#bbburst-shape-4" width="41.83776736851251" opacity="0.11331608894553036" transform="matrix(0.768806501496177,-0.6394814799954794,0.6394814799954794,0.768806501496177,343.244070599348,441.9513345260613)" fill="#ffbd9b"></use><use xlink:href="#bbburst-shape-1" width="22.31555049122718" opacity="0.8018134959877081" transform="matrix(0.7331430277517632,0.680074481846641,-0.680074481846641,0.7331430277517632,585.2845298377863,141.41774427505982)" fill="#ffa6d5"></use><use xlink:href="#bbburst-shape-4" width="43.34717457900116" opacity="-0.0729582904957855" transform="matrix(0.9998586535046333,0.016812882319861864,-0.016812882319861864,0.9998586535046333,718.4203901804962,349.0061290486384)" fill="#ffbd9b"></use><use xlink:href="#bbburst-shape-10" width="42.86306162545962" opacity="0.37541984923629257" transform="matrix(0.9996779316796828,-0.025377803542297215,0.025377803542297215,0.9996779316796828,624.8430078892869,115.7584840783158)" fill="none" stroke="#ff5c58"></use><use xlink:href="#bbburst-shape-6" width="28.8480820293113" opacity="0.6895118019182609" transform="matrix(0.9896509149362139,-0.14349587647704257,0.14349587647704257,0.9896509149362139,459.2943081191834,54.883522877250016)" fill="#ffa6d5"></use><use xlink:href="#bbburst-shape-4" width="31.970435725252816" opacity="0.4032658841814659" transform="matrix(0.8309051296746272,-0.5564141133008679,0.5564141133008679,0.8309051296746272,262.7564444895088,-173.2212680226354)" fill="hsla(290, 40%, 60%, 1.00)"></use><use xlink:href="#bbburst-shape-6" width="33.100606052847596" opacity="0.6810069057287531" transform="matrix(0.9336528458613432,-0.3581792336456916,0.3581792336456916,0.9336528458613432,148.6116490881397,142.09833804494974)" fill="#ffbd9b"></use><use xlink:href="#bbburst-shape-4" width="33.10900854667041" opacity="0.5650199389103419" transform="matrix(0.77335630941972,0.6339716229301674,-0.6339716229301674,0.77335630941972,570.0949321123574,262.7232888408606)" fill="hsla(290, 40%, 60%, 1.00)"></use><use xlink:href="#bbburst-shape-6" width="32.81520857065478" opacity="0.3514592833900665" transform="matrix(0.7705059353473775,-0.6374328228091669,0.6374328228091669,0.7705059353473775,318.4284752596454,-122.59959368799048)" fill="hsla(290, 40%, 60%, 1.00)"></use><use xlink:href="#bbburst-shape-4" width="33.150758991482796" opacity="0.5061979437988753" transform="matrix(0.8601109968220465,0.5101069232482398,-0.5101069232482398,0.8601109968220465,423.9423944351448,195.44063294401263)" fill="#ffa6d5"></use><use xlink:href="#bbburst-shape-8" width="41.174488233170955" opacity="0.34797118150549555" transform="matrix(0.7883240244379701,-0.6152602965362894,0.6152602965362894,0.7883240244379701,-126.2902120296568,-30.796017229979952)" fill="none" stroke="#ffa6d5"></use><use xlink:href="#bbburst-shape-4" width="31.65686913117526" opacity="0.6180556637723358" transform="matrix(0.9927062195460287,0.12055854044667225,-0.12055854044667225,0.9927062195460287,602.3998777526631,-24.988655754633953)" fill="#e1c6e7"></use><use xlink:href="#bbburst-shape-10" width="32.515753257336094" opacity="0.5848232221857775" transform="matrix(0.748337898786619,-0.6633177136483149,0.6633177136483149,0.748337898786619,46.097837776828214,-59.04146182399441)" fill="none" stroke="#ff5c58"></use><use xlink:href="#bbburst-shape-6" width="35.20462922971312" opacity="0.6616830971559875" transform="matrix(0.9633334966475572,0.2683068658025563,-0.2683068658025563,0.9633334966475572,508.99930459246616,161.0421533075443)" fill="#ffa6d5"></use><use xlink:href="#bbburst-shape-4" width="28.383568331417685" opacity="0.6419976527109945" transform="matrix(0.849581894647232,-0.5274567321474053,0.5274567321474053,0.849581894647232,24.632685943210248,120.07458784629313)" fill="#ffa6d5"></use><use xlink:href="#bbburst-shape-6" width="22.531512943639928" opacity="0.9093536056935974" transform="matrix(0.962074880326957,0.272785491996681,-0.272785491996681,0.962074880326957,475.98831822911956,46.261054277615074)" fill="#ffbd9b"></use><use xlink:href="#bbburst-shape-4" width="47.09321170149841" opacity="-0.05986503592819248" transform="matrix(0.8656520750497296,-0.5006460675588067,0.5006460675588067,0.8656520750497296,-151.81447377387298,-277.62830852769986)" fill="#ff5c58"></use><use xlink:href="#bbburst-shape-4" width="33.65168000837557" opacity="0.4803197455433087" transform="matrix(0.9434078691751837,-0.33163472734069854,0.33163472734069854,0.9434078691751837,261.5121380066669,261.88666612253064)" fill="hsla(290, 40%, 60%, 1.00)"></use><use xlink:href="#bbburst-shape-6" width="48.37654670741425" opacity="0.3708901544769849" transform="matrix(0.8830113770884557,-0.46935158243298725,0.46935158243298725,0.8830113770884557,80.373743201808,-202.48316875135544)" fill="#ffa6d5"></use><use xlink:href="#bbburst-shape-6" width="33.747978133275005" opacity="0.7421760847413339" transform="matrix(0.9529795491913594,-0.3030346165424561,0.3030346165424561,0.9529795491913594,315.2995623024852,-79.49324186617957)" fill="#ffa6d5"></use><use xlink:href="#bbburst-shape-6" width="30.33181938981265" opacity="0.3658843458742672" transform="matrix(0.9558524635144359,0.2938470146068939,-0.2938470146068939,0.9558524635144359,428.2282289726115,288.5728818341236)" fill="hsla(290, 40%, 60%, 1.00)"></use><use xlink:href="#bbburst-shape-6" width="29.38718622459648" opacity="0.34374152152096626" transform="matrix(0.782563966791072,0.6225701871116396,-0.6225701871116396,0.782563966791072,721.3721524858537,360.9912785286599)" fill="#e1c6e7"></use><use xlink:href="#bbburst-shape-10" width="43.5385848786578" opacity="0.19130930183754735" transform="matrix(0.7917760542849974,0.6108114929017633,-0.6108114929017633,0.7917760542849974,271.6345902081661,147.99149479982208)" fill="none" stroke="#e1c6e7"></use><use xlink:href="#bbburst-shape-6" width="40.445480788200186" opacity="0.30730363812954076" transform="matrix(0.7088972477550682,-0.705311769450425,0.705311769450425,0.7088972477550682,379.96177835301404,-13.364971335698385)" fill="hsla(290, 40%, 60%, 1.00)"></use><use xlink:href="#bbburst-shape-6" width="35.53969510067709" opacity="0.2726424434833159" transform="matrix(0.9544444005238255,-0.29838881733187544,0.29838881733187544,0.9544444005238255,589.9412137058309,49.77040353928476)" fill="#e1c6e7"></use><use xlink:href="#bbburst-shape-4" width="30.274263717625715" opacity="0.16897656651451776" transform="matrix(0.934601403690405,-0.35569680378086693,0.35569680378086693,0.934601403690405,339.856348901161,392.925275732238)" fill="#ffbd9b"></use><use xlink:href="#bbburst-shape-10" width="37.279829543621304" opacity="0.5281167146939909" transform="matrix(0.7564517225780707,0.654049532840342,-0.654049532840342,0.7564517225780707,815.7358874847579,214.82242019416998)" fill="none" stroke="#ffa6d5"></use><use xlink:href="#bbburst-shape-6" width="53.400288440217494" opacity="0.09773866185072644" transform="matrix(0.99080482566566,0.13529891883397013,-0.13529891883397013,0.99080482566566,80.95609404235611,-211.22351924702772)" fill="#ffa6d5"></use><use xlink:href="#bbburst-shape-10" width="27.43175353383765" opacity="0.7569710209697664" transform="matrix(0.9753268965227238,-0.2207655881684286,0.2207655881684286,0.9753268965227238,274.75473493475954,-93.89755518094398)" fill="none" stroke="#e1c6e7"></use><use xlink:href="#bbburst-shape-8" width="51.94126002971686" opacity="-0.07269487275173403" transform="matrix(0.9518514123683436,-0.30655976378577404,0.30655976378577404,0.9518514123683436,592.545207051271,-315.54248402381575)" fill="none" stroke="#ffbd9b"></use><use xlink:href="#bbburst-shape-6" width="39.95521685129739" opacity="0.1264430975289148" transform="matrix(0.8308901741129329,-0.5564364461127435,0.5564364461127435,0.8308901741129329,-10.216681853678722,432.6988780106204)" fill="#ffbd9b"></use><use xlink:href="#bbburst-shape-4" width="20.826433472466185" opacity="0.8752256980254949" transform="matrix(0.9235613917916375,-0.3834505908091594,0.3834505908091594,0.9235613917916375,186.55400713384955,9.951245324640468)" fill="#ffbd9b"></use><use xlink:href="#bbburst-shape-8" width="28.13659125481198" opacity="0.7055650232675916" transform="matrix(0.9995466233958867,-0.030108929869416767,0.030108929869416767,0.9995466233958867,489.51355570705687,-64.1048543273136)" fill="none" stroke="#ffa6d5"></use><use xlink:href="#bbburst-shape-1" width="36.029555693568994" opacity="0.5043688600878259" transform="matrix(0.8387978001876214,-0.5444430644249288,0.5444430644249288,0.8387978001876214,356.50947681823453,-43.49549229676131)" fill="#ff5c58"></use><use xlink:href="#bbburst-shape-10" width="29.551099269969683" opacity="0.08413888228211397" transform="matrix(0.7558240740330987,-0.654774746849639,0.654774746849639,0.7558240740330987,485.20928001041,-96.3405700265483)" fill="none" stroke="#ffa6d5"></use><use xlink:href="#bbburst-shape-1" width="24.19566586667286" opacity="0.8478764754491152" transform="matrix(0.9863718748291999,0.1645312266590427,-0.1645312266590427,0.9863718748291999,510.7206983514046,-34.64852836325997)" fill="hsla(290, 40%, 60%, 1.00)"></use><use xlink:href="#bbburst-shape-10" width="32.402720829812395" opacity="0.3541950603255626" transform="matrix(0.9973410635121458,-0.07287525665451891,0.07287525665451891,0.9973410635121458,64.09647637377286,5.394326529938212)" fill="none" stroke="#ff5c58"></use><use xlink:href="#bbburst-shape-1" width="33.10535598190247" opacity="0.22606290179359612" transform="matrix(0.863830560343143,-0.5037824560435303,0.5037824560435303,0.863830560343143,463.87002102747834,270.4087940089279)" fill="#e1c6e7"></use><use xlink:href="#bbburst-shape-10" width="27.073215889926843" opacity="0.8155325439817755" transform="matrix(0.9837411732764196,-0.17959204882380855,0.17959204882380855,0.9837411732764196,357.59598314675253,80.0908700646279)" fill="none" stroke="#ffa6d5"></use><use xlink:href="#bbburst-shape-10" width="42.07542690036787" opacity="0.074752351222234" transform="matrix(0.886313358221201,0.4630859866576152,-0.4630859866576152,0.886313358221201,212.22332503755467,254.32389149140596)" fill="none" stroke="#ff5c58"></use><use xlink:href="#bbburst-shape-4" width="44.33243031107804" opacity="0.16065556718690166" transform="matrix(0.9664106086884354,0.2570029871702811,-0.2570029871702811,0.9664106086884354,228.63357673651961,288.4659450612891)" fill="#ff5c58"></use><use xlink:href="#bbburst-shape-10" width="43.44335567423042" opacity="0.4342158864683652" transform="matrix(0.8526083868635392,0.5225504173282741,-0.5225504173282741,0.8526083868635392,589.1467741807155,-206.99329224234825)" fill="none" stroke="hsla(290, 40%, 60%, 1.00)"></use><use xlink:href="#bbburst-shape-6" width="41.05578180198791" opacity="0.20606078986376197" transform="matrix(0.9043915905692647,0.4267034695284249,-0.4267034695284249,0.9043915905692647,628.215222985425,-319.5895243527539)" fill="hsla(290, 40%, 60%, 1.00)"></use><use xlink:href="#bbburst-shape-10" width="51.23109396543064" opacity="0.2010816911689043" transform="matrix(0.9940423572532133,-0.10899445851269234,0.10899445851269234,0.9940423572532133,91.41087587703119,-262.921827783111)" fill="none" stroke="#ffbd9b"></use><use xlink:href="#bbburst-shape-8" width="25.341419665808868" opacity="0.6133469911033889" transform="matrix(0.8142482449995266,-0.5805168348249609,0.5805168348249609,0.8142482449995266,179.91815639061372,-90.88422666246453)" fill="none" stroke="#ffa6d5"></use><use xlink:href="#bbburst-shape-1" width="51.07695413069146" opacity="0.10931266875677426" transform="matrix(0.918853478579678,0.3945988911566086,-0.3945988911566086,0.918853478579678,733.4613471349537,-325.4114416123145)" fill="#e1c6e7"></use><use xlink:href="#bbburst-shape-6" width="33.05988078053451" opacity="0.4269614166991429" transform="matrix(0.8615258079182235,-0.5077137798906508,0.5077137798906508,0.8615258079182235,3.482616992640004,-121.65251063769247)" fill="hsla(290, 40%, 60%, 1.00)"></use><use xlink:href="#bbburst-shape-10" width="41.150014301876055" opacity="-0.07156940019035951" transform="matrix(0.9758893468255265,0.2182658533817123,-0.2182658533817123,0.9758893468255265,132.8059245034794,352.5510722619758)" fill="none" stroke="#e1c6e7"></use><use xlink:href="#bbburst-shape-6" width="37.41232111952795" opacity="0.4583876886494943" transform="matrix(0.9968311502979006,0.07954657626676577,-0.07954657626676577,0.9968311502979006,182.42671119770867,78.25845826592717)" fill="hsla(290, 40%, 60%, 1.00)"></use><use xlink:href="#bbburst-shape-8" width="32.53670628813998" opacity="0.6762564880437085" transform="matrix(0.7505789867705029,-0.660780738686113,0.660780738686113,0.7505789867705029,213.53434549581453,225.03317557804309)" fill="none" stroke="#ff5c58"></use><use xlink:href="#bbburst-shape-8" width="20.507926025806974" opacity="0.8112347724723828" transform="matrix(0.8163940713308072,0.5774952123575648,-0.5774952123575648,0.8163940713308072,706.7820755035355,79.07222115869939)" fill="none" stroke="#ffa6d5"></use><use xlink:href="#bbburst-shape-10" width="20.009698900858318" opacity="0.946648761666292" transform="matrix(0.9994988068770377,0.03165651672844186,-0.03165651672844186,0.9994988068770377,423.80763099721275,11.253968246800696)" fill="none" stroke="hsla(290, 40%, 60%, 1.00)"></use><use xlink:href="#bbburst-shape-6" width="28.445324157363455" opacity="0.7747595722934606" transform="matrix(0.8369085730868914,-0.5473427082675564,0.5473427082675564,0.8369085730868914,145.8932269731256,171.67310630159074)" fill="hsla(290, 40%, 60%, 1.00)"></use><use xlink:href="#bbburst-shape-10" width="45.1965277829909" opacity="0.12203295850596418" transform="matrix(0.9964008716086047,0.08476616693948603,-0.08476616693948603,0.9964008716086047,237.31831108592843,-355.1468814745603)" fill="none" stroke="#e1c6e7"></use><use xlink:href="#bbburst-shape-4" width="35.25727771039443" opacity="0.5775125077691996" transform="matrix(0.8477129170901422,0.5304552857673508,-0.5304552857673508,0.8477129170901422,434.9181244770827,-47.42004988155634)" fill="#ffa6d5"></use><use xlink:href="#bbburst-shape-1" width="41.2028777899106" opacity="0.03982106396856411" transform="matrix(0.7854253376796007,-0.6189564111719704,0.6189564111719704,0.7854253376796007,491.6153327132978,344.43356177585764)" fill="#ff5c58"></use></svg>