<svg xmlns="http://www.w3.org/2000/svg" version="1.1" xmlns:xlink="http://www.w3.org/1999/xlink" xmlns:svgjs="http://svgjs.dev/svgjs" viewBox="0 0 1422 800"><g stroke-width="3.5" stroke="hsl(282, 100%, 75%)" fill="none" stroke-linecap="square"><line x1="0" y1="0" x2="184" y2="184" opacity="0.18"></line><line x1="184" y1="0" x2="368" y2="184" opacity="0.52"></line><line x1="552" y1="0" x2="368" y2="184" opacity="0.78"></line><line x1="736" y1="0" x2="552" y2="184" opacity="0.10"></line><line x1="736" y1="0" x2="920" y2="184" opacity="0.53"></line><line x1="1104" y1="0" x2="920" y2="184" opacity="0.27"></line><line x1="1288" y1="0" x2="1104" y2="184" opacity="0.54"></line><line x1="1472" y1="0" x2="1288" y2="184" opacity="0.69"></line><line x1="0" y1="184" x2="184" y2="368" opacity="0.49"></line><line x1="368" y1="184" x2="184" y2="368" opacity="0.78"></line><line x1="368" y1="184" x2="552" y2="368" opacity="0.88"></line><line x1="736" y1="184" x2="552" y2="368" opacity="0.78"></line><line x1="736" y1="184" x2="920" y2="368" opacity="0.43"></line><line x1="920" y1="184" x2="1104" y2="368" opacity="0.49"></line><line x1="1104" y1="184" x2="1288" y2="368" opacity="0.69"></line><line x1="1472" y1="184" x2="1288" y2="368" opacity="0.21"></line><line x1="0" y1="368" x2="184" y2="552" opacity="0.75"></line><line x1="184" y1="368" x2="368" y2="552" opacity="0.28"></line><line x1="552" y1="368" x2="368" y2="552" opacity="0.64"></line><line x1="552" y1="368" x2="736" y2="552" opacity="0.39"></line><line x1="736" y1="368" x2="920" y2="552" opacity="0.09"></line><line x1="920" y1="368" x2="1104" y2="552" opacity="0.95"></line><line x1="1104" y1="368" x2="1288" y2="552" opacity="0.90"></line><line x1="1472" y1="368" x2="1288" y2="552" opacity="0.47"></line><line x1="0" y1="552" x2="184" y2="736" opacity="0.29"></line><line x1="368" y1="552" x2="184" y2="736" opacity="0.18"></line><line x1="368" y1="552" x2="552" y2="736" opacity="0.38"></line><line x1="736" y1="552" x2="552" y2="736" opacity="0.37"></line><line x1="736" y1="552" x2="920" y2="736" opacity="0.55"></line><line x1="920" y1="552" x2="1104" y2="736" opacity="0.27"></line><line x1="1104" y1="552" x2="1288" y2="736" opacity="0.44"></line><line x1="1288" y1="552" x2="1472" y2="736" opacity="0.57"></line><line x1="184" y1="736" x2="0" y2="920" opacity="0.64"></line><line x1="184" y1="736" x2="368" y2="920" opacity="0.86"></line><line x1="368" y1="736" x2="552" y2="920" opacity="0.27"></line><line x1="552" y1="736" x2="736" y2="920" opacity="0.32"></line><line x1="920" y1="736" x2="736" y2="920" opacity="0.73"></line><line x1="1104" y1="736" x2="920" y2="920" opacity="0.92"></line><line x1="1288" y1="736" x2="1104" y2="920" opacity="0.41"></line><line x1="1288" y1="736" x2="1472" y2="920" opacity="0.85"></line></g></svg>