<svg xmlns="http://www.w3.org/2000/svg" version="1.1" xmlns:xlink="http://www.w3.org/1999/xlink" xmlns:svgjs="http://svgjs.dev/svgjs" viewBox="0 0 800 800"><defs><linearGradient x1="50%" y1="0%" x2="50%" y2="100%" id="nnneon-grad"><stop stop-color="hsl(305, 77%, 50%)" stop-opacity="1" offset="0%"></stop><stop stop-color="#743681" stop-opacity="1" offset="100%"></stop></linearGradient><filter id="nnneon-filter" x="-100%" y="-100%" width="400%" height="400%" filterUnits="objectBoundingBox" primitiveUnits="userSpaceOnUse" color-interpolation-filters="sRGB">
	<feGaussianBlur stdDeviation="17 8" x="0%" y="0%" width="100%" height="100%" in="SourceGraphic" edgeMode="none" result="blur"></feGaussianBlur></filter><filter id="nnneon-filter2" x="-100%" y="-100%" width="400%" height="400%" filterUnits="objectBoundingBox" primitiveUnits="userSpaceOnUse" color-interpolation-filters="sRGB">
	<feGaussianBlur stdDeviation="10 9" x="0%" y="0%" width="100%" height="100%" in="SourceGraphic" edgeMode="none" result="blur"></feGaussianBlur></filter></defs><g stroke-width="15.5" stroke="url(#nnneon-grad)" fill="none" transform="rotate(40, 400, 400)"><path d="M386.06431377206286 214.33813561748315C391.77354225408357 202.80151379379214 408.2264441595146 202.80151379379214 413.93567264153535 214.33813561748315L590.8673375567062 571.870795300104C595.9810773381239 582.2040013163103 588.4620607425215 594.3143446296161 576.9332129227548 594.3143446296161H223.06677349084333C211.5379256710766 594.3143446296161 204.01890907547426 582.2040013163103 209.13264885689205 571.870795300104L386.06431377206286 214.33813561748315Z " filter="url(#nnneon-filter)"></path><path d="M386.06431377206286 214.33813561748315C391.77354225408357 202.80151379379214 408.2264441595146 202.80151379379214 413.93567264153535 214.33813561748315L590.8673375567062 571.870795300104C595.9810773381239 582.2040013163103 588.4620607425215 594.3143446296161 576.9332129227548 594.3143446296161H223.06677349084333C211.5379256710766 594.3143446296161 204.01890907547426 582.2040013163103 209.13264885689205 571.870795300104L386.06431377206286 214.33813561748315Z " filter="url(#nnneon-filter2)" opacity="0.58"></path><path d="M386.06431377206286 214.33813561748315C391.77354225408357 202.80151379379214 408.2264441595146 202.80151379379214 413.93567264153535 214.33813561748315L590.8673375567062 571.870795300104C595.9810773381239 582.2040013163103 588.4620607425215 594.3143446296161 576.9332129227548 594.3143446296161H223.06677349084333C211.5379256710766 594.3143446296161 204.01890907547426 582.2040013163103 209.13264885689205 571.870795300104L386.06431377206286 214.33813561748315Z " filter="url(#nnneon-filter2)" opacity="0.58"></path><path d="M386.06431377206286 214.33813561748315C391.77354225408357 202.80151379379214 408.2264441595146 202.80151379379214 413.93567264153535 214.33813561748315L590.8673375567062 571.870795300104C595.9810773381239 582.2040013163103 588.4620607425215 594.3143446296161 576.9332129227548 594.3143446296161H223.06677349084333C211.5379256710766 594.3143446296161 204.01890907547426 582.2040013163103 209.13264885689205 571.870795300104L386.06431377206286 214.33813561748315Z "></path></g></svg>